<mxfile host="app.diagrams.net" modified="2021-10-30T09:34:43.446Z" agent="5.0 (Windows NT 10.0; Win64; x64) AppleWebKit/537.36 (KHTML, like Gecko) Chrome/95.0.4638.69 Safari/537.36" etag="5ElxelwLj6b1FXzU78L-" version="15.6.2" type="github">
  <diagram id="C5RBs43oDa-KdzZeNtuy" name="Page-1">
    <mxGraphModel dx="3160" dy="2022" grid="1" gridSize="10" guides="1" tooltips="1" connect="1" arrows="1" fold="1" page="1" pageScale="1" pageWidth="827" pageHeight="1169" math="0" shadow="0">
      <root>
        <mxCell id="WIyWlLk6GJQsqaUBKTNV-0" />
        <mxCell id="WIyWlLk6GJQsqaUBKTNV-1" parent="WIyWlLk6GJQsqaUBKTNV-0" />
        <mxCell id="3ZLGVI5_L8edAR1RSdMJ-56" value="" style="group" vertex="1" connectable="0" parent="WIyWlLk6GJQsqaUBKTNV-1">
          <mxGeometry x="-170" y="40" width="770" height="560" as="geometry" />
        </mxCell>
        <mxCell id="3ZLGVI5_L8edAR1RSdMJ-15" value="" style="group" vertex="1" connectable="0" parent="3ZLGVI5_L8edAR1RSdMJ-56">
          <mxGeometry x="10" width="760" height="250" as="geometry" />
        </mxCell>
        <mxCell id="3ZLGVI5_L8edAR1RSdMJ-0" value="&lt;b&gt;&lt;font style=&quot;font-size: 16px&quot;&gt;Web Server that knows which streams are currently broadcasting&lt;/font&gt;&lt;/b&gt;" style="rounded=0;whiteSpace=wrap;html=1;fillColor=#ffe6cc;strokeColor=#d79b00;" vertex="1" parent="3ZLGVI5_L8edAR1RSdMJ-15">
          <mxGeometry x="270" width="190" height="80" as="geometry" />
        </mxCell>
        <mxCell id="3ZLGVI5_L8edAR1RSdMJ-1" value="&lt;b&gt;&lt;font style=&quot;font-size: 16px&quot;&gt;Viewer&#39;s Browser&lt;/font&gt;&lt;/b&gt;" style="rounded=0;whiteSpace=wrap;html=1;fillColor=#fff2cc;strokeColor=#d6b656;" vertex="1" parent="3ZLGVI5_L8edAR1RSdMJ-15">
          <mxGeometry x="610" y="93" width="150" height="70" as="geometry" />
        </mxCell>
        <mxCell id="3ZLGVI5_L8edAR1RSdMJ-10" style="edgeStyle=orthogonalEdgeStyle;rounded=0;orthogonalLoop=1;jettySize=auto;html=1;entryX=0;entryY=0.25;entryDx=0;entryDy=0;fontSize=16;" edge="1" parent="3ZLGVI5_L8edAR1RSdMJ-15" source="3ZLGVI5_L8edAR1RSdMJ-0" target="3ZLGVI5_L8edAR1RSdMJ-1">
          <mxGeometry relative="1" as="geometry" />
        </mxCell>
        <mxCell id="3ZLGVI5_L8edAR1RSdMJ-12" style="edgeStyle=orthogonalEdgeStyle;rounded=0;orthogonalLoop=1;jettySize=auto;html=1;entryX=0.5;entryY=1;entryDx=0;entryDy=0;fontSize=16;" edge="1" parent="3ZLGVI5_L8edAR1RSdMJ-15" source="3ZLGVI5_L8edAR1RSdMJ-2" target="3ZLGVI5_L8edAR1RSdMJ-0">
          <mxGeometry relative="1" as="geometry" />
        </mxCell>
        <mxCell id="3ZLGVI5_L8edAR1RSdMJ-2" value="&lt;b&gt;&lt;font style=&quot;font-size: 16px&quot;&gt;Real Time Messaging Protocol (RTMP) Server&lt;/font&gt;&lt;/b&gt;" style="rounded=0;whiteSpace=wrap;html=1;fillColor=#d5e8d4;strokeColor=#82b366;" vertex="1" parent="3ZLGVI5_L8edAR1RSdMJ-15">
          <mxGeometry x="270" y="155" width="190" height="80" as="geometry" />
        </mxCell>
        <mxCell id="3ZLGVI5_L8edAR1RSdMJ-11" style="edgeStyle=orthogonalEdgeStyle;rounded=0;orthogonalLoop=1;jettySize=auto;html=1;entryX=1;entryY=0.5;entryDx=0;entryDy=0;fontSize=16;exitX=-0.015;exitY=0.617;exitDx=0;exitDy=0;exitPerimeter=0;" edge="1" parent="3ZLGVI5_L8edAR1RSdMJ-15" source="3ZLGVI5_L8edAR1RSdMJ-1" target="3ZLGVI5_L8edAR1RSdMJ-2">
          <mxGeometry relative="1" as="geometry" />
        </mxCell>
        <mxCell id="3ZLGVI5_L8edAR1RSdMJ-6" value="" style="group" vertex="1" connectable="0" parent="3ZLGVI5_L8edAR1RSdMJ-15">
          <mxGeometry y="110" width="170" height="140" as="geometry" />
        </mxCell>
        <mxCell id="3ZLGVI5_L8edAR1RSdMJ-4" value="&lt;b&gt;&lt;span style=&quot;color: rgb(0 , 0 , 0) ; font-family: &amp;#34;helvetica&amp;#34; ; font-size: 16px ; font-style: normal ; letter-spacing: normal ; text-align: center ; text-indent: 0px ; text-transform: none ; word-spacing: 0px ; background-color: rgb(248 , 249 , 250) ; display: inline ; float: none&quot;&gt;Streamer&#39;s Computer&lt;/span&gt;&lt;br&gt;&lt;/b&gt;" style="text;html=1;strokeColor=none;fillColor=none;align=center;verticalAlign=middle;whiteSpace=wrap;rounded=0;fontSize=16;" vertex="1" parent="3ZLGVI5_L8edAR1RSdMJ-6">
          <mxGeometry width="170" height="30" as="geometry" />
        </mxCell>
        <mxCell id="3ZLGVI5_L8edAR1RSdMJ-5" value="" style="rounded=0;whiteSpace=wrap;html=1;fontSize=16;align=center;fillColor=#dae8fc;strokeColor=#6c8ebf;" vertex="1" parent="3ZLGVI5_L8edAR1RSdMJ-6">
          <mxGeometry y="30" width="170" height="110" as="geometry" />
        </mxCell>
        <mxCell id="3ZLGVI5_L8edAR1RSdMJ-7" value="&lt;b&gt;Open Broadcaster Sofeware (OBS)&lt;/b&gt;" style="rounded=0;whiteSpace=wrap;html=1;fontSize=16;align=center;" vertex="1" parent="3ZLGVI5_L8edAR1RSdMJ-6">
          <mxGeometry x="10" y="40" width="150" height="90" as="geometry" />
        </mxCell>
        <mxCell id="3ZLGVI5_L8edAR1RSdMJ-8" style="edgeStyle=orthogonalEdgeStyle;rounded=0;orthogonalLoop=1;jettySize=auto;html=1;entryX=0;entryY=0.5;entryDx=0;entryDy=0;fontSize=16;" edge="1" parent="3ZLGVI5_L8edAR1RSdMJ-15" source="3ZLGVI5_L8edAR1RSdMJ-7" target="3ZLGVI5_L8edAR1RSdMJ-2">
          <mxGeometry relative="1" as="geometry" />
        </mxCell>
        <mxCell id="3ZLGVI5_L8edAR1RSdMJ-9" value="video feed" style="text;html=1;strokeColor=none;fillColor=none;align=center;verticalAlign=middle;whiteSpace=wrap;rounded=0;fontSize=16;" vertex="1" parent="3ZLGVI5_L8edAR1RSdMJ-15">
          <mxGeometry x="180" y="163" width="60" height="30" as="geometry" />
        </mxCell>
        <mxCell id="3ZLGVI5_L8edAR1RSdMJ-13" value="&lt;font style=&quot;font-size: 14px&quot;&gt;Request to get video feed&lt;/font&gt;" style="text;html=1;strokeColor=none;fillColor=none;align=center;verticalAlign=middle;whiteSpace=wrap;rounded=0;fontSize=16;" vertex="1" parent="3ZLGVI5_L8edAR1RSdMJ-15">
          <mxGeometry x="500" y="200" width="100" height="35" as="geometry" />
        </mxCell>
        <mxCell id="3ZLGVI5_L8edAR1RSdMJ-14" value="&lt;font style=&quot;font-size: 14px&quot;&gt;A stream is ready at mystreams.com/stream&lt;/font&gt;" style="text;html=1;strokeColor=none;fillColor=none;align=center;verticalAlign=middle;whiteSpace=wrap;rounded=0;fontSize=16;" vertex="1" parent="3ZLGVI5_L8edAR1RSdMJ-15">
          <mxGeometry x="500" y="3" width="100" height="35" as="geometry" />
        </mxCell>
        <mxCell id="3ZLGVI5_L8edAR1RSdMJ-51" value="" style="group" vertex="1" connectable="0" parent="3ZLGVI5_L8edAR1RSdMJ-56">
          <mxGeometry y="280" width="760" height="280" as="geometry" />
        </mxCell>
        <mxCell id="3ZLGVI5_L8edAR1RSdMJ-53" value="" style="group" vertex="1" connectable="0" parent="3ZLGVI5_L8edAR1RSdMJ-51">
          <mxGeometry y="20" width="760" height="253" as="geometry" />
        </mxCell>
        <mxCell id="3ZLGVI5_L8edAR1RSdMJ-16" value="" style="group" vertex="1" connectable="0" parent="3ZLGVI5_L8edAR1RSdMJ-53">
          <mxGeometry y="3" width="760" height="250" as="geometry" />
        </mxCell>
        <mxCell id="3ZLGVI5_L8edAR1RSdMJ-18" value="&lt;b&gt;&lt;font style=&quot;font-size: 16px&quot;&gt;Viewer&#39;s Browser&lt;/font&gt;&lt;/b&gt;" style="rounded=0;whiteSpace=wrap;html=1;fillColor=#fff2cc;strokeColor=#d6b656;" vertex="1" parent="3ZLGVI5_L8edAR1RSdMJ-16">
          <mxGeometry x="639" y="107" width="150" height="70" as="geometry" />
        </mxCell>
        <mxCell id="3ZLGVI5_L8edAR1RSdMJ-19" style="edgeStyle=orthogonalEdgeStyle;rounded=0;orthogonalLoop=1;jettySize=auto;html=1;entryX=0;entryY=0.25;entryDx=0;entryDy=0;fontSize=16;" edge="1" parent="3ZLGVI5_L8edAR1RSdMJ-16" source="3ZLGVI5_L8edAR1RSdMJ-17" target="3ZLGVI5_L8edAR1RSdMJ-18">
          <mxGeometry relative="1" as="geometry" />
        </mxCell>
        <mxCell id="3ZLGVI5_L8edAR1RSdMJ-20" style="edgeStyle=orthogonalEdgeStyle;rounded=0;orthogonalLoop=1;jettySize=auto;html=1;entryX=0.5;entryY=1;entryDx=0;entryDy=0;fontSize=16;" edge="1" parent="3ZLGVI5_L8edAR1RSdMJ-16" source="3ZLGVI5_L8edAR1RSdMJ-21" target="3ZLGVI5_L8edAR1RSdMJ-17">
          <mxGeometry relative="1" as="geometry" />
        </mxCell>
        <mxCell id="3ZLGVI5_L8edAR1RSdMJ-21" value="&lt;b&gt;&lt;font style=&quot;font-size: 16px&quot;&gt;Real Time Messaging Protocol (RTMP) Server&lt;/font&gt;&lt;/b&gt;" style="rounded=0;whiteSpace=wrap;html=1;fillColor=#d5e8d4;strokeColor=#82b366;" vertex="1" parent="3ZLGVI5_L8edAR1RSdMJ-16">
          <mxGeometry x="287" y="155" width="190" height="80" as="geometry" />
        </mxCell>
        <mxCell id="3ZLGVI5_L8edAR1RSdMJ-22" style="edgeStyle=orthogonalEdgeStyle;rounded=0;orthogonalLoop=1;jettySize=auto;html=1;entryX=1;entryY=0.5;entryDx=0;entryDy=0;fontSize=16;exitX=-0.015;exitY=0.617;exitDx=0;exitDy=0;exitPerimeter=0;" edge="1" parent="3ZLGVI5_L8edAR1RSdMJ-16" source="3ZLGVI5_L8edAR1RSdMJ-18" target="3ZLGVI5_L8edAR1RSdMJ-21">
          <mxGeometry relative="1" as="geometry" />
        </mxCell>
        <mxCell id="3ZLGVI5_L8edAR1RSdMJ-23" value="" style="group" vertex="1" connectable="0" parent="3ZLGVI5_L8edAR1RSdMJ-16">
          <mxGeometry y="110" width="170" height="140" as="geometry" />
        </mxCell>
        <mxCell id="3ZLGVI5_L8edAR1RSdMJ-24" value="&lt;b&gt;&lt;span style=&quot;color: rgb(0 , 0 , 0) ; font-family: &amp;#34;helvetica&amp;#34; ; font-size: 16px ; font-style: normal ; letter-spacing: normal ; text-align: center ; text-indent: 0px ; text-transform: none ; word-spacing: 0px ; background-color: rgb(248 , 249 , 250) ; display: inline ; float: none&quot;&gt;Streamer&#39;s Computer&lt;/span&gt;&lt;br&gt;&lt;/b&gt;" style="text;html=1;strokeColor=none;fillColor=none;align=center;verticalAlign=middle;whiteSpace=wrap;rounded=0;fontSize=16;" vertex="1" parent="3ZLGVI5_L8edAR1RSdMJ-23">
          <mxGeometry width="170" height="30" as="geometry" />
        </mxCell>
        <mxCell id="3ZLGVI5_L8edAR1RSdMJ-25" value="" style="rounded=0;whiteSpace=wrap;html=1;fontSize=16;align=center;fillColor=#dae8fc;strokeColor=#6c8ebf;" vertex="1" parent="3ZLGVI5_L8edAR1RSdMJ-23">
          <mxGeometry y="30" width="170" height="110" as="geometry" />
        </mxCell>
        <mxCell id="3ZLGVI5_L8edAR1RSdMJ-26" value="&lt;b&gt;Open Broadcaster Sofeware (OBS)&lt;/b&gt;" style="rounded=0;whiteSpace=wrap;html=1;fontSize=16;align=center;" vertex="1" parent="3ZLGVI5_L8edAR1RSdMJ-23">
          <mxGeometry x="10" y="40" width="150" height="90" as="geometry" />
        </mxCell>
        <mxCell id="3ZLGVI5_L8edAR1RSdMJ-27" style="edgeStyle=orthogonalEdgeStyle;rounded=0;orthogonalLoop=1;jettySize=auto;html=1;entryX=0;entryY=0.5;entryDx=0;entryDy=0;fontSize=16;" edge="1" parent="3ZLGVI5_L8edAR1RSdMJ-16" source="3ZLGVI5_L8edAR1RSdMJ-26" target="3ZLGVI5_L8edAR1RSdMJ-21">
          <mxGeometry relative="1" as="geometry" />
        </mxCell>
        <mxCell id="3ZLGVI5_L8edAR1RSdMJ-28" value="&lt;font style=&quot;font-size: 14px&quot;&gt;I&#39;m creating stream id 2&lt;/font&gt;" style="text;html=1;strokeColor=none;fillColor=none;align=center;verticalAlign=middle;whiteSpace=wrap;rounded=0;fontSize=16;" vertex="1" parent="3ZLGVI5_L8edAR1RSdMJ-16">
          <mxGeometry x="180" y="163" width="80" height="27" as="geometry" />
        </mxCell>
        <mxCell id="3ZLGVI5_L8edAR1RSdMJ-29" value="&lt;font style=&quot;font-size: 14px&quot;&gt;Show me stream id 2&lt;/font&gt;" style="text;html=1;strokeColor=none;fillColor=none;align=center;verticalAlign=middle;whiteSpace=wrap;rounded=0;fontSize=16;" vertex="1" parent="3ZLGVI5_L8edAR1RSdMJ-16">
          <mxGeometry x="500" y="200" width="100" height="35" as="geometry" />
        </mxCell>
        <mxCell id="3ZLGVI5_L8edAR1RSdMJ-52" value="" style="group" vertex="1" connectable="0" parent="3ZLGVI5_L8edAR1RSdMJ-16">
          <mxGeometry x="286" y="27" width="244" height="90" as="geometry" />
        </mxCell>
        <mxCell id="3ZLGVI5_L8edAR1RSdMJ-17" value="" style="rounded=0;whiteSpace=wrap;html=1;fillColor=#ffe6cc;strokeColor=#d79b00;" vertex="1" parent="3ZLGVI5_L8edAR1RSdMJ-52">
          <mxGeometry x="1" width="190" height="90" as="geometry" />
        </mxCell>
        <mxCell id="3ZLGVI5_L8edAR1RSdMJ-31" value="{ id: 1, title: &#39;stream one&#39;, description: &#39;some stream&#39; }" style="rounded=0;whiteSpace=wrap;html=1;fontSize=14;align=center;" vertex="1" parent="3ZLGVI5_L8edAR1RSdMJ-52">
          <mxGeometry x="6" y="8" width="180" height="36" as="geometry" />
        </mxCell>
        <mxCell id="3ZLGVI5_L8edAR1RSdMJ-48" value="{ id: 2, title: &#39;stream two&#39;, description: &#39;some coding&#39; }" style="rounded=0;whiteSpace=wrap;html=1;fontSize=14;align=center;" vertex="1" parent="3ZLGVI5_L8edAR1RSdMJ-52">
          <mxGeometry x="5" y="44" width="180" height="36" as="geometry" />
        </mxCell>
        <mxCell id="3ZLGVI5_L8edAR1RSdMJ-49" value="&lt;font style=&quot;font-size: 15px&quot;&gt;&lt;b&gt;API Server&lt;/b&gt;&lt;/font&gt;" style="text;html=1;strokeColor=none;fillColor=none;align=center;verticalAlign=middle;whiteSpace=wrap;rounded=0;fontSize=14;" vertex="1" parent="3ZLGVI5_L8edAR1RSdMJ-53">
          <mxGeometry x="325" width="110" height="30" as="geometry" />
        </mxCell>
        <mxCell id="3ZLGVI5_L8edAR1RSdMJ-57" value="" style="rounded=0;whiteSpace=wrap;html=1;fontSize=14;align=center;" vertex="1" parent="WIyWlLk6GJQsqaUBKTNV-1">
          <mxGeometry x="-1520" y="-140" width="970" height="1300" as="geometry" />
        </mxCell>
        <mxCell id="3ZLGVI5_L8edAR1RSdMJ-61" style="edgeStyle=orthogonalEdgeStyle;rounded=0;orthogonalLoop=1;jettySize=auto;html=1;entryX=0;entryY=0.5;entryDx=0;entryDy=0;dashed=1;fontSize=16;strokeWidth=2;exitX=0;exitY=0.5;exitDx=0;exitDy=0;" edge="1" parent="WIyWlLk6GJQsqaUBKTNV-1" source="3ZLGVI5_L8edAR1RSdMJ-58" target="3ZLGVI5_L8edAR1RSdMJ-60">
          <mxGeometry relative="1" as="geometry">
            <Array as="points">
              <mxPoint x="-100" y="670" />
              <mxPoint x="-100" y="760" />
            </Array>
          </mxGeometry>
        </mxCell>
        <mxCell id="3ZLGVI5_L8edAR1RSdMJ-58" value="&lt;font style=&quot;font-size: 16px&quot;&gt;&lt;b&gt;npmjs.com/package/json-server&lt;/b&gt;&lt;/font&gt;" style="rounded=0;whiteSpace=wrap;html=1;fontSize=14;align=center;fillColor=#dae8fc;strokeColor=#6c8ebf;" vertex="1" parent="WIyWlLk6GJQsqaUBKTNV-1">
          <mxGeometry x="70" y="650" width="290" height="40" as="geometry" />
        </mxCell>
        <mxCell id="3ZLGVI5_L8edAR1RSdMJ-59" style="edgeStyle=orthogonalEdgeStyle;rounded=0;orthogonalLoop=1;jettySize=auto;html=1;entryX=1;entryY=0.5;entryDx=0;entryDy=0;fontSize=16;dashed=1;strokeWidth=2;" edge="1" parent="WIyWlLk6GJQsqaUBKTNV-1" source="3ZLGVI5_L8edAR1RSdMJ-49" target="3ZLGVI5_L8edAR1RSdMJ-58">
          <mxGeometry relative="1" as="geometry">
            <Array as="points">
              <mxPoint x="650" y="355" />
              <mxPoint x="650" y="670" />
            </Array>
          </mxGeometry>
        </mxCell>
        <mxCell id="3ZLGVI5_L8edAR1RSdMJ-63" value="" style="edgeStyle=orthogonalEdgeStyle;rounded=0;orthogonalLoop=1;jettySize=auto;html=1;dashed=1;fontSize=16;fontColor=#FF6666;strokeWidth=2;" edge="1" parent="WIyWlLk6GJQsqaUBKTNV-1" source="3ZLGVI5_L8edAR1RSdMJ-60" target="3ZLGVI5_L8edAR1RSdMJ-62">
          <mxGeometry relative="1" as="geometry" />
        </mxCell>
        <mxCell id="3ZLGVI5_L8edAR1RSdMJ-60" value="&lt;p style=&quot;box-sizing: border-box ; font-size: 18px ; margin-top: 0px ; margin-bottom: 16px ; line-height: 1.65 ; letter-spacing: 0.1px ; font-family: &amp;#34;source sans pro&amp;#34; , &amp;#34;lucida grande&amp;#34; , sans-serif ; background-color: rgb(255 , 255 , 255)&quot;&gt;&lt;font color=&quot;#333333&quot;&gt;a full fake &lt;/font&gt;&lt;b&gt;&lt;font color=&quot;#ff6666&quot;&gt;REST&lt;/font&gt;&lt;/b&gt;&lt;font color=&quot;#333333&quot;&gt; API with&amp;nbsp;&lt;/font&gt;&lt;span style=&quot;color: black ; box-sizing: border-box ; font-weight: bolder&quot;&gt;zero coding&lt;/span&gt;&lt;font color=&quot;#333333&quot;&gt;&amp;nbsp;in&amp;nbsp;&lt;/font&gt;&lt;span style=&quot;color: black ; box-sizing: border-box ; font-weight: bolder&quot;&gt;less than 30 seconds&lt;/span&gt;&lt;/p&gt;&lt;p style=&quot;box-sizing: border-box ; color: rgb(51 , 51 , 51) ; font-size: 18px ; margin-top: 0px ; margin-bottom: 16px ; line-height: 1.65 ; letter-spacing: 0.1px ; font-family: &amp;#34;source sans pro&amp;#34; , &amp;#34;lucida grande&amp;#34; , sans-serif ; background-color: rgb(255 , 255 , 255)&quot;&gt;Created with &amp;lt;3 for front-end developers who need a quick back-end for prototyping and mocking.&lt;/p&gt;" style="rounded=0;whiteSpace=wrap;html=1;fontSize=16;align=center;" vertex="1" parent="WIyWlLk6GJQsqaUBKTNV-1">
          <mxGeometry x="-50" y="700" width="550" height="120" as="geometry" />
        </mxCell>
        <mxCell id="3ZLGVI5_L8edAR1RSdMJ-62" value="GET / PUT / POST / DELETE" style="whiteSpace=wrap;html=1;rounded=0;fontSize=16;" vertex="1" parent="WIyWlLk6GJQsqaUBKTNV-1">
          <mxGeometry x="590" y="730" width="130" height="60" as="geometry" />
        </mxCell>
        <mxCell id="3ZLGVI5_L8edAR1RSdMJ-68" value="" style="edgeStyle=orthogonalEdgeStyle;rounded=0;orthogonalLoop=1;jettySize=auto;html=1;fontSize=16;fontColor=#FF6666;strokeWidth=1;" edge="1" parent="WIyWlLk6GJQsqaUBKTNV-1" source="3ZLGVI5_L8edAR1RSdMJ-64" target="3ZLGVI5_L8edAR1RSdMJ-67">
          <mxGeometry relative="1" as="geometry" />
        </mxCell>
        <mxCell id="3ZLGVI5_L8edAR1RSdMJ-64" value="streamsReducer" style="rounded=0;whiteSpace=wrap;html=1;fontSize=16;align=center;fillColor=#dae8fc;strokeColor=#6c8ebf;" vertex="1" parent="WIyWlLk6GJQsqaUBKTNV-1">
          <mxGeometry x="-220" y="890" width="120" height="50" as="geometry" />
        </mxCell>
        <mxCell id="3ZLGVI5_L8edAR1RSdMJ-65" value="Stream Reducer Structure Option 1" style="text;html=1;align=center;verticalAlign=middle;resizable=0;points=[];autosize=1;strokeColor=none;fillColor=none;fontSize=16;fontColor=#FF6666;" vertex="1" parent="WIyWlLk6GJQsqaUBKTNV-1">
          <mxGeometry x="-200" y="850" width="270" height="20" as="geometry" />
        </mxCell>
        <mxCell id="3ZLGVI5_L8edAR1RSdMJ-66" value="&lt;b&gt;Stream Reducer Structure Option 2&lt;/b&gt;" style="text;html=1;align=center;verticalAlign=middle;resizable=0;points=[];autosize=1;strokeColor=none;fillColor=none;fontSize=16;fontColor=#FF6666;" vertex="1" parent="WIyWlLk6GJQsqaUBKTNV-1">
          <mxGeometry x="300" y="850" width="280" height="20" as="geometry" />
        </mxCell>
        <mxCell id="3ZLGVI5_L8edAR1RSdMJ-67" value="&lt;b&gt;[&lt;/b&gt;" style="rounded=0;whiteSpace=wrap;html=1;fontSize=16;align=center;fillColor=#dae8fc;strokeColor=#6c8ebf;" vertex="1" parent="WIyWlLk6GJQsqaUBKTNV-1">
          <mxGeometry x="-30" y="890" width="50" height="50" as="geometry" />
        </mxCell>
        <mxCell id="3ZLGVI5_L8edAR1RSdMJ-69" value="&lt;b&gt;stream&lt;/b&gt;" style="rounded=0;whiteSpace=wrap;html=1;fontSize=16;align=center;fillColor=#dae8fc;strokeColor=#6c8ebf;" vertex="1" parent="WIyWlLk6GJQsqaUBKTNV-1">
          <mxGeometry x="20" y="920" width="60" height="50" as="geometry" />
        </mxCell>
        <mxCell id="3ZLGVI5_L8edAR1RSdMJ-70" value="&lt;b&gt;stream&lt;/b&gt;" style="rounded=0;whiteSpace=wrap;html=1;fontSize=16;align=center;fillColor=#dae8fc;strokeColor=#6c8ebf;" vertex="1" parent="WIyWlLk6GJQsqaUBKTNV-1">
          <mxGeometry x="20" y="970" width="60" height="50" as="geometry" />
        </mxCell>
        <mxCell id="3ZLGVI5_L8edAR1RSdMJ-71" value="&lt;b&gt;stream&lt;/b&gt;" style="rounded=0;whiteSpace=wrap;html=1;fontSize=16;align=center;fillColor=#dae8fc;strokeColor=#6c8ebf;" vertex="1" parent="WIyWlLk6GJQsqaUBKTNV-1">
          <mxGeometry x="20" y="1020" width="60" height="50" as="geometry" />
        </mxCell>
        <mxCell id="3ZLGVI5_L8edAR1RSdMJ-72" value="&lt;b&gt;]&lt;/b&gt;" style="rounded=0;whiteSpace=wrap;html=1;fontSize=16;align=center;fillColor=#dae8fc;strokeColor=#6c8ebf;" vertex="1" parent="WIyWlLk6GJQsqaUBKTNV-1">
          <mxGeometry x="80" y="1040" width="50" height="50" as="geometry" />
        </mxCell>
        <mxCell id="3ZLGVI5_L8edAR1RSdMJ-85" style="edgeStyle=orthogonalEdgeStyle;rounded=0;orthogonalLoop=1;jettySize=auto;html=1;entryX=0;entryY=0.5;entryDx=0;entryDy=0;fontSize=16;fontColor=#FF6666;strokeWidth=1;" edge="1" parent="WIyWlLk6GJQsqaUBKTNV-1" source="3ZLGVI5_L8edAR1RSdMJ-73" target="3ZLGVI5_L8edAR1RSdMJ-80">
          <mxGeometry relative="1" as="geometry" />
        </mxCell>
        <mxCell id="3ZLGVI5_L8edAR1RSdMJ-73" value="&lt;b&gt;&lt;font color=&quot;#ff6666&quot;&gt;streamsReducer&lt;/font&gt;&lt;/b&gt;" style="rounded=0;whiteSpace=wrap;html=1;fontSize=16;align=center;fillColor=#d5e8d4;strokeColor=#82b366;" vertex="1" parent="WIyWlLk6GJQsqaUBKTNV-1">
          <mxGeometry x="210" y="890" width="130" height="50" as="geometry" />
        </mxCell>
        <mxCell id="3ZLGVI5_L8edAR1RSdMJ-76" value="&lt;b&gt;1:&lt;/b&gt;" style="rounded=0;whiteSpace=wrap;html=1;fontSize=16;align=center;fillColor=#fff2cc;strokeColor=#d6b656;" vertex="1" parent="WIyWlLk6GJQsqaUBKTNV-1">
          <mxGeometry x="440" y="930" width="60" height="50" as="geometry" />
        </mxCell>
        <mxCell id="3ZLGVI5_L8edAR1RSdMJ-77" value="&lt;b&gt;3:&lt;/b&gt;" style="rounded=0;whiteSpace=wrap;html=1;fontSize=16;align=center;fillColor=#fff2cc;strokeColor=#d6b656;" vertex="1" parent="WIyWlLk6GJQsqaUBKTNV-1">
          <mxGeometry x="440" y="980" width="60" height="50" as="geometry" />
        </mxCell>
        <mxCell id="3ZLGVI5_L8edAR1RSdMJ-78" value="&lt;b&gt;83:&lt;/b&gt;" style="rounded=0;whiteSpace=wrap;html=1;fontSize=16;align=center;fillColor=#fff2cc;strokeColor=#d6b656;" vertex="1" parent="WIyWlLk6GJQsqaUBKTNV-1">
          <mxGeometry x="440" y="1030" width="60" height="50" as="geometry" />
        </mxCell>
        <mxCell id="3ZLGVI5_L8edAR1RSdMJ-79" value="&lt;b&gt;}&lt;/b&gt;" style="rounded=0;whiteSpace=wrap;html=1;fontSize=16;align=center;fillColor=#fff2cc;strokeColor=#d6b656;" vertex="1" parent="WIyWlLk6GJQsqaUBKTNV-1">
          <mxGeometry x="390" y="1080" width="50" height="50" as="geometry" />
        </mxCell>
        <mxCell id="3ZLGVI5_L8edAR1RSdMJ-80" value="&lt;b&gt;{&lt;/b&gt;" style="rounded=0;whiteSpace=wrap;html=1;fontSize=16;align=center;fillColor=#fff2cc;strokeColor=#d6b656;" vertex="1" parent="WIyWlLk6GJQsqaUBKTNV-1">
          <mxGeometry x="389" y="890" width="50" height="50" as="geometry" />
        </mxCell>
        <mxCell id="3ZLGVI5_L8edAR1RSdMJ-82" value="&lt;b&gt;stream with id 1&lt;/b&gt;" style="rounded=0;whiteSpace=wrap;html=1;fontSize=16;align=center;fillColor=#fff2cc;strokeColor=#d6b656;" vertex="1" parent="WIyWlLk6GJQsqaUBKTNV-1">
          <mxGeometry x="500" y="930" width="150" height="50" as="geometry" />
        </mxCell>
        <mxCell id="3ZLGVI5_L8edAR1RSdMJ-83" value="&lt;b&gt;stream id 3&lt;/b&gt;" style="rounded=0;whiteSpace=wrap;html=1;fontSize=16;align=center;fillColor=#fff2cc;strokeColor=#d6b656;" vertex="1" parent="WIyWlLk6GJQsqaUBKTNV-1">
          <mxGeometry x="500" y="980" width="150" height="50" as="geometry" />
        </mxCell>
        <mxCell id="3ZLGVI5_L8edAR1RSdMJ-84" value="&lt;b&gt;stream id 83&lt;/b&gt;" style="rounded=0;whiteSpace=wrap;html=1;fontSize=16;align=center;fillColor=#fff2cc;strokeColor=#d6b656;" vertex="1" parent="WIyWlLk6GJQsqaUBKTNV-1">
          <mxGeometry x="500" y="1030" width="150" height="50" as="geometry" />
        </mxCell>
        <mxCell id="3ZLGVI5_L8edAR1RSdMJ-86" value="&lt;b&gt;easy to access, modify from stream Reducer&lt;/b&gt;" style="text;html=1;align=center;verticalAlign=middle;resizable=0;points=[];autosize=1;strokeColor=none;fillColor=none;fontSize=16;fontColor=#FF6666;" vertex="1" parent="WIyWlLk6GJQsqaUBKTNV-1">
          <mxGeometry x="440" y="890" width="360" height="20" as="geometry" />
        </mxCell>
        <mxCell id="3ZLGVI5_L8edAR1RSdMJ-87" value="state.map(el =&amp;gt; el === &#39;hi&#39; ? &#39;bye&#39;: el)&amp;nbsp;" style="whiteSpace=wrap;html=1;fontSize=16;fontColor=#FF6666;align=center;" vertex="1" parent="WIyWlLk6GJQsqaUBKTNV-1">
          <mxGeometry x="-90" y="1250" width="300" height="40" as="geometry" />
        </mxCell>
        <mxCell id="3ZLGVI5_L8edAR1RSdMJ-88" value="&lt;div style=&quot;text-align: left&quot;&gt;&lt;span&gt;const profile = {&lt;/span&gt;&lt;/div&gt;&lt;div style=&quot;text-align: left&quot;&gt;&lt;span&gt;&lt;span style=&quot;white-space: pre&quot;&gt;	&lt;/span&gt;name: &#39;Will&#39;,&lt;/span&gt;&lt;/div&gt;&lt;blockquote style=&quot;margin: 0 0 0 40px ; border: none ; padding: 0px&quot;&gt;&lt;div style=&quot;text-align: left&quot;&gt;&lt;span&gt;age: 42,&lt;/span&gt;&lt;/div&gt;&lt;/blockquote&gt;&lt;blockquote style=&quot;margin: 0 0 0 40px ; border: none ; padding: 0px&quot;&gt;&lt;div style=&quot;text-align: left&quot;&gt;&lt;span&gt;email: &#39;will@will.com&#39;&lt;/span&gt;&lt;/div&gt;&lt;/blockquote&gt;&lt;div style=&quot;text-align: left&quot;&gt;&lt;span&gt;}&lt;/span&gt;&lt;/div&gt;" style="whiteSpace=wrap;html=1;fontSize=16;fontColor=#FF6666;align=center;" vertex="1" parent="WIyWlLk6GJQsqaUBKTNV-1">
          <mxGeometry x="380" y="1310" width="220" height="100" as="geometry" />
        </mxCell>
        <mxCell id="3ZLGVI5_L8edAR1RSdMJ-89" value="state.filter(element =&amp;gt; element != &#39;hi&#39;)" style="whiteSpace=wrap;html=1;fontSize=16;fontColor=#FF6666;align=center;" vertex="1" parent="WIyWlLk6GJQsqaUBKTNV-1">
          <mxGeometry x="-90" y="1150" width="300" height="40" as="geometry" />
        </mxCell>
        <mxCell id="3ZLGVI5_L8edAR1RSdMJ-90" value="&lt;span style=&quot;color: rgb(144 , 101 , 176) ; font-weight: 600&quot;&gt;REMOVE ELEMENTS&lt;/span&gt;" style="text;html=1;align=center;verticalAlign=middle;resizable=0;points=[];autosize=1;strokeColor=none;fillColor=none;fontSize=16;fontColor=#FF6666;" vertex="1" parent="WIyWlLk6GJQsqaUBKTNV-1">
          <mxGeometry x="-250" y="1130" width="180" height="20" as="geometry" />
        </mxCell>
        <mxCell id="3ZLGVI5_L8edAR1RSdMJ-91" value="&lt;span style=&quot;color: rgb(144 , 101 , 176) ; font-weight: 600&quot;&gt;ADDING&lt;/span&gt;" style="text;html=1;align=center;verticalAlign=middle;resizable=0;points=[];autosize=1;strokeColor=none;fillColor=none;fontSize=16;fontColor=#FF6666;" vertex="1" parent="WIyWlLk6GJQsqaUBKTNV-1">
          <mxGeometry x="-190" y="1200" width="80" height="20" as="geometry" />
        </mxCell>
        <mxCell id="3ZLGVI5_L8edAR1RSdMJ-92" value="[...state, &#39;hi&#39;]" style="whiteSpace=wrap;html=1;fontSize=16;fontColor=#FF6666;align=center;" vertex="1" parent="WIyWlLk6GJQsqaUBKTNV-1">
          <mxGeometry x="-90" y="1200" width="300" height="40" as="geometry" />
        </mxCell>
        <mxCell id="3ZLGVI5_L8edAR1RSdMJ-93" value="&lt;span style=&quot;color: rgb(144 , 101 , 176) ; font-weight: 600&quot;&gt;REPLACING&lt;/span&gt;" style="text;html=1;align=center;verticalAlign=middle;resizable=0;points=[];autosize=1;strokeColor=none;fillColor=none;fontSize=16;fontColor=#FF6666;" vertex="1" parent="WIyWlLk6GJQsqaUBKTNV-1">
          <mxGeometry x="-210" y="1250" width="110" height="20" as="geometry" />
        </mxCell>
        <mxCell id="3ZLGVI5_L8edAR1RSdMJ-94" value="&lt;span style=&quot;color: rgb(144 , 101 , 176)&quot;&gt;&lt;b&gt;UPDATING&lt;/b&gt;&lt;/span&gt;" style="text;html=1;align=center;verticalAlign=middle;resizable=0;points=[];autosize=1;strokeColor=none;fillColor=none;fontSize=16;fontColor=#FF6666;" vertex="1" parent="WIyWlLk6GJQsqaUBKTNV-1">
          <mxGeometry x="280" y="1139" width="100" height="20" as="geometry" />
        </mxCell>
        <mxCell id="3ZLGVI5_L8edAR1RSdMJ-95" value="&lt;span&gt;{...state, name: &#39;Sam&#39; }&lt;/span&gt;" style="whiteSpace=wrap;html=1;fontSize=16;fontColor=#FF6666;align=center;" vertex="1" parent="WIyWlLk6GJQsqaUBKTNV-1">
          <mxGeometry x="380" y="1140" width="220" height="40" as="geometry" />
        </mxCell>
        <mxCell id="3ZLGVI5_L8edAR1RSdMJ-96" value="&lt;span style=&quot;color: rgb(144 , 101 , 176)&quot;&gt;&lt;b&gt;ADDING&lt;/b&gt;&lt;/span&gt;" style="text;html=1;align=center;verticalAlign=middle;resizable=0;points=[];autosize=1;strokeColor=none;fillColor=none;fontSize=16;fontColor=#FF6666;" vertex="1" parent="WIyWlLk6GJQsqaUBKTNV-1">
          <mxGeometry x="300" y="1180" width="80" height="20" as="geometry" />
        </mxCell>
        <mxCell id="3ZLGVI5_L8edAR1RSdMJ-97" value="&lt;span&gt;{...state, age: 30 }&lt;/span&gt;" style="whiteSpace=wrap;html=1;fontSize=16;fontColor=#FF6666;align=center;" vertex="1" parent="WIyWlLk6GJQsqaUBKTNV-1">
          <mxGeometry x="380" y="1180" width="220" height="40" as="geometry" />
        </mxCell>
        <mxCell id="3ZLGVI5_L8edAR1RSdMJ-103" style="edgeStyle=orthogonalEdgeStyle;rounded=0;orthogonalLoop=1;jettySize=auto;html=1;entryX=0;entryY=0.5;entryDx=0;entryDy=0;fontSize=16;fontColor=#FF6666;strokeWidth=1;exitX=0.524;exitY=0.992;exitDx=0;exitDy=0;exitPerimeter=0;" edge="1" parent="WIyWlLk6GJQsqaUBKTNV-1" source="3ZLGVI5_L8edAR1RSdMJ-98" target="3ZLGVI5_L8edAR1RSdMJ-88">
          <mxGeometry relative="1" as="geometry" />
        </mxCell>
        <mxCell id="3ZLGVI5_L8edAR1RSdMJ-104" style="edgeStyle=orthogonalEdgeStyle;rounded=0;orthogonalLoop=1;jettySize=auto;html=1;entryX=0;entryY=0.5;entryDx=0;entryDy=0;fontSize=16;fontColor=#FF6666;strokeWidth=1;exitX=0.581;exitY=1.033;exitDx=0;exitDy=0;exitPerimeter=0;" edge="1" parent="WIyWlLk6GJQsqaUBKTNV-1" source="3ZLGVI5_L8edAR1RSdMJ-98" target="3ZLGVI5_L8edAR1RSdMJ-100">
          <mxGeometry relative="1" as="geometry" />
        </mxCell>
        <mxCell id="3ZLGVI5_L8edAR1RSdMJ-105" style="edgeStyle=orthogonalEdgeStyle;rounded=0;orthogonalLoop=1;jettySize=auto;html=1;entryX=0;entryY=0.75;entryDx=0;entryDy=0;fontSize=16;fontColor=#FF6666;strokeWidth=1;" edge="1" parent="WIyWlLk6GJQsqaUBKTNV-1" source="3ZLGVI5_L8edAR1RSdMJ-98" target="3ZLGVI5_L8edAR1RSdMJ-99">
          <mxGeometry relative="1" as="geometry" />
        </mxCell>
        <mxCell id="3ZLGVI5_L8edAR1RSdMJ-98" value="&lt;span style=&quot;color: rgb(144 , 101 , 176)&quot;&gt;&lt;b&gt;REMOVING&lt;/b&gt;&lt;/span&gt;" style="text;html=1;align=center;verticalAlign=middle;resizable=0;points=[];autosize=1;strokeColor=none;fillColor=none;fontSize=16;fontColor=#FF6666;" vertex="1" parent="WIyWlLk6GJQsqaUBKTNV-1">
          <mxGeometry x="260" y="1250" width="100" height="20" as="geometry" />
        </mxCell>
        <mxCell id="3ZLGVI5_L8edAR1RSdMJ-99" value="&lt;span class=&quot;notion-enable-hover&quot;&gt;{...state, age: undefined}&amp;nbsp;&lt;br&gt;&lt;/span&gt;" style="whiteSpace=wrap;html=1;fontSize=16;fontColor=#FF6666;align=center;" vertex="1" parent="WIyWlLk6GJQsqaUBKTNV-1">
          <mxGeometry x="380" y="1230" width="220" height="40" as="geometry" />
        </mxCell>
        <mxCell id="3ZLGVI5_L8edAR1RSdMJ-100" value="&lt;span class=&quot;notion-enable-hover&quot;&gt;_.omit(state, &#39;age&#39;)&lt;br&gt;&lt;/span&gt;" style="whiteSpace=wrap;html=1;fontSize=16;fontColor=#FF6666;align=center;" vertex="1" parent="WIyWlLk6GJQsqaUBKTNV-1">
          <mxGeometry x="380" y="1270" width="220" height="40" as="geometry" />
        </mxCell>
        <mxCell id="3ZLGVI5_L8edAR1RSdMJ-101" value="&lt;span&gt;&lt;b&gt;using lodash lib&lt;/b&gt;&lt;/span&gt;" style="text;html=1;align=center;verticalAlign=middle;resizable=0;points=[];autosize=1;strokeColor=none;fillColor=none;fontSize=16;fontColor=#FF6666;" vertex="1" parent="WIyWlLk6GJQsqaUBKTNV-1">
          <mxGeometry x="595" y="1280" width="140" height="20" as="geometry" />
        </mxCell>
        <mxCell id="3ZLGVI5_L8edAR1RSdMJ-102" value="&lt;span style=&quot;color: rgb(203 , 145 , 47) ; font-weight: 600&quot;&gt;or without lodash&lt;/span&gt;" style="text;html=1;align=center;verticalAlign=middle;resizable=0;points=[];autosize=1;strokeColor=none;fillColor=none;fontSize=16;fontColor=#FF6666;" vertex="1" parent="WIyWlLk6GJQsqaUBKTNV-1">
          <mxGeometry x="600" y="1330" width="150" height="20" as="geometry" />
        </mxCell>
      </root>
    </mxGraphModel>
  </diagram>
</mxfile>
